<?xml version="1.0" encoding="UTF-8"?><svg id="a" xmlns="http://www.w3.org/2000/svg" viewBox="0 0 5455.28 29.76"><defs><style>.b{fill:#ffba5a;}.c{fill:#ffd192;}</style></defs><path class="c" d="M2321.01,0h26.36V22.54c0,3.99-3.24,7.23-7.23,7.23h-11.91c-3.99,0-7.23-3.24-7.23-7.23V0h0Z"/><path class="b" d="M2360.41,0h26.36V22.54c0,3.99-3.24,7.23-7.23,7.23h-11.91c-3.99,0-7.23-3.24-7.23-7.23V0h0Z"/><path class="c" d="M2399.81,0h26.36V22.54c0,3.99-3.24,7.23-7.23,7.23h-11.91c-3.99,0-7.23-3.24-7.23-7.23V0h0Z"/><path class="b" d="M2438.93,0h26.36V22.54c0,3.99-3.24,7.23-7.23,7.23h-11.91c-3.99,0-7.23-3.24-7.23-7.23V0h0Z"/><path class="c" d="M2478.33,0h26.36V22.54c0,3.99-3.24,7.23-7.23,7.23h-11.91c-3.99,0-7.23-3.24-7.23-7.23V0h0Z"/><path class="b" d="M2517.73,0h26.36V22.54c0,3.99-3.24,7.23-7.23,7.23h-11.91c-3.99,0-7.23-3.24-7.23-7.23V0h0Z"/><path class="c" d="M2557.13,0h26.36V22.54c0,3.99-3.24,7.23-7.23,7.23h-11.91c-3.99,0-7.23-3.24-7.23-7.23V0h0Z"/><path class="b" d="M2596.25,0h26.36V22.54c0,3.99-3.24,7.23-7.23,7.23h-11.91c-3.99,0-7.23-3.24-7.23-7.23V0h0Z"/><path class="c" d="M2635.65,0h26.36V22.54c0,3.99-3.24,7.23-7.23,7.23h-11.91c-3.99,0-7.23-3.24-7.23-7.23V0h0Z"/><path class="b" d="M2675.06,0h26.36V22.54c0,3.99-3.24,7.23-7.23,7.23h-11.91c-3.99,0-7.23-3.24-7.23-7.23V0h0Z"/><path class="c" d="M2714.46,0h26.36V22.54c0,3.99-3.24,7.23-7.23,7.23h-11.91c-3.99,0-7.23-3.24-7.23-7.23V0h0Z"/><path class="b" d="M2753.57,0h26.36V22.54c0,3.99-3.24,7.23-7.23,7.23h-11.91c-3.99,0-7.23-3.24-7.23-7.23V0h0Z"/><path class="c" d="M2792.98,0h26.36V22.54c0,3.99-3.24,7.23-7.23,7.23h-11.91c-3.99,0-7.23-3.24-7.23-7.23V0h0Z"/><path class="b" d="M2832.38,0h26.36V22.54c0,3.99-3.24,7.23-7.23,7.23h-11.91c-3.99,0-7.23-3.24-7.23-7.23V0h0Z"/><path class="c" d="M2871.78,0h26.36V22.54c0,3.99-3.24,7.23-7.23,7.23h-11.91c-3.99,0-7.23-3.24-7.23-7.23V0h0Z"/><path class="b" d="M2910.9,0h26.36V22.54c0,3.99-3.24,7.23-7.23,7.23h-11.91c-3.99,0-7.23-3.24-7.23-7.23V0h0Z"/><path class="c" d="M2950.3,0h26.36V22.54c0,3.99-3.24,7.23-7.23,7.23h-11.91c-3.99,0-7.23-3.24-7.23-7.23V0h0Z"/><path class="b" d="M2989.7,0h26.36V22.54c0,3.99-3.24,7.23-7.23,7.23h-11.91c-3.99,0-7.23-3.24-7.23-7.23V0h0Z"/><path class="c" d="M3029.1,0h26.36V22.54c0,3.99-3.24,7.23-7.23,7.23h-11.91c-3.99,0-7.23-3.24-7.23-7.23V0h0Z"/><path class="b" d="M3068.22,0h26.36V22.54c0,3.99-3.24,7.23-7.23,7.23h-11.91c-3.99,0-7.23-3.24-7.23-7.23V0h0Z"/><path class="b" d="M1809.64,0h26.36V22.54c0,3.99-3.24,7.23-7.23,7.23h-11.91c-3.99,0-7.23-3.24-7.23-7.23V0h0Z"/><path class="c" d="M1849.04,0h26.36V22.54c0,3.99-3.24,7.23-7.23,7.23h-11.91c-3.99,0-7.23-3.24-7.23-7.23V0h0Z"/><path class="b" d="M1888.44,0h26.36V22.54c0,3.99-3.24,7.23-7.23,7.23h-11.91c-3.99,0-7.23-3.24-7.23-7.23V0h0Z"/><path class="c" d="M1927.84,0h26.36V22.54c0,3.99-3.24,7.23-7.23,7.23h-11.91c-3.99,0-7.23-3.24-7.23-7.23V0h0Z"/><path class="b" d="M1966.96,0h26.36V22.54c0,3.99-3.24,7.23-7.23,7.23h-11.91c-3.99,0-7.23-3.24-7.23-7.23V0h0Z"/><path class="c" d="M2006.36,0h26.36V22.54c0,3.99-3.24,7.23-7.23,7.23h-11.91c-3.99,0-7.23-3.24-7.23-7.23V0h0Z"/><path class="b" d="M2045.76,0h26.36V22.54c0,3.99-3.24,7.23-7.23,7.23h-11.91c-3.99,0-7.23-3.24-7.23-7.23V0h0Z"/><path class="c" d="M2085.17,0h26.36V22.54c0,3.99-3.24,7.23-7.23,7.23h-11.91c-3.99,0-7.23-3.24-7.23-7.23V0h0Z"/><path class="b" d="M2124.28,0h26.36V22.54c0,3.99-3.24,7.23-7.23,7.23h-11.91c-3.99,0-7.23-3.24-7.23-7.23V0h0Z"/><path class="c" d="M2163.69,0h26.36V22.54c0,3.99-3.24,7.23-7.23,7.23h-11.91c-3.99,0-7.23-3.24-7.23-7.23V0h0Z"/><path class="b" d="M2203.09,0h26.36V22.54c0,3.99-3.24,7.23-7.23,7.23h-11.91c-3.99,0-7.23-3.24-7.23-7.23V0h0Z"/><path class="c" d="M2242.49,0h26.36V22.54c0,3.99-3.24,7.23-7.23,7.23h-11.91c-3.99,0-7.23-3.24-7.23-7.23V0h0Z"/><path class="b" d="M2281.61,0h26.36V22.54c0,3.99-3.24,7.23-7.23,7.23h-11.91c-3.99,0-7.23-3.24-7.23-7.23V0h0Z"/><path class="c" d="M3107.62,0h26.36V22.54c0,3.99-3.24,7.23-7.23,7.23h-11.91c-3.99,0-7.23-3.24-7.23-7.23V0h0Z"/><path class="b" d="M3147.02,0h26.36V22.54c0,3.99-3.24,7.23-7.23,7.23h-11.91c-3.99,0-7.23-3.24-7.23-7.23V0h0Z"/><path class="c" d="M3186.43,0h26.36V22.54c0,3.99-3.24,7.23-7.23,7.23h-11.91c-3.99,0-7.23-3.24-7.23-7.23V0h0Z"/><path class="b" d="M3225.54,0h26.36V22.54c0,3.99-3.24,7.23-7.23,7.23h-11.91c-3.99,0-7.23-3.24-7.23-7.23V0h0Z"/><path class="c" d="M3265.23,0h26.36V22.54c0,3.99-3.24,7.23-7.23,7.23h-11.91c-3.99,0-7.23-3.24-7.23-7.23V0h0Z"/><path class="b" d="M3304.63,0h26.36V22.54c0,3.99-3.24,7.23-7.23,7.23h-11.91c-3.99,0-7.23-3.24-7.23-7.23V0h0Z"/><path class="c" d="M3344.03,0h26.36V22.54c0,3.99-3.24,7.23-7.23,7.23h-11.91c-3.99,0-7.23-3.24-7.23-7.23V0h0Z"/><path class="b" d="M3383.15,0h26.36V22.54c0,3.99-3.24,7.23-7.23,7.23h-11.91c-3.99,0-7.23-3.24-7.23-7.23V0h0Z"/><path class="c" d="M3422.55,0h26.36V22.54c0,3.99-3.24,7.23-7.23,7.23h-11.91c-3.99,0-7.23-3.24-7.23-7.23V0h0Z"/><path class="b" d="M3461.95,0h26.36V22.54c0,3.99-3.24,7.23-7.23,7.23h-11.91c-3.99,0-7.23-3.24-7.23-7.23V0h0Z"/><path class="c" d="M3501.35,0h26.36V22.54c0,3.99-3.24,7.23-7.23,7.23h-11.91c-3.99,0-7.23-3.24-7.23-7.23V0h0Z"/><path class="b" d="M3540.47,0h26.36V22.54c0,3.99-3.24,7.23-7.23,7.23h-11.91c-3.99,0-7.23-3.24-7.23-7.23V0h0Z"/><path class="c" d="M3580.16,0h26.36V22.54c0,3.99-3.24,7.23-7.23,7.23h-11.91c-3.99,0-7.23-3.24-7.23-7.23V0h0Z"/><path class="b" d="M3619.28,0h26.36V22.54c0,3.99-3.24,7.23-7.23,7.23h-11.91c-3.99,0-7.23-3.24-7.23-7.23V0h0Z"/><path class="c" d="M511.37,0h26.36V22.54c0,3.99-3.24,7.23-7.23,7.23h-11.91c-3.99,0-7.23-3.24-7.23-7.23V0h0Z"/><path class="b" d="M550.77,0h26.36V22.54c0,3.99-3.24,7.23-7.23,7.23h-11.91c-3.99,0-7.23-3.24-7.23-7.23V0h0Z"/><path class="c" d="M590.17,0h26.36V22.54c0,3.99-3.24,7.23-7.23,7.23h-11.91c-3.99,0-7.23-3.24-7.23-7.23V0h0Z"/><path class="b" d="M629.29,0h26.36V22.54c0,3.99-3.24,7.23-7.23,7.23h-11.91c-3.99,0-7.23-3.24-7.23-7.23V0h0Z"/><path class="c" d="M668.69,0h26.36V22.54c0,3.99-3.24,7.23-7.23,7.23h-11.91c-3.99,0-7.23-3.24-7.23-7.23V0h0Z"/><path class="b" d="M708.09,0h26.36V22.54c0,3.99-3.24,7.23-7.23,7.23h-11.91c-3.99,0-7.23-3.24-7.23-7.23V0h0Z"/><path class="c" d="M747.5,0h26.36V22.54c0,3.99-3.24,7.23-7.23,7.23h-11.91c-3.99,0-7.23-3.24-7.23-7.23V0h0Z"/><path class="b" d="M786.61,0h26.36V22.54c0,3.99-3.24,7.23-7.23,7.23h-11.91c-3.99,0-7.23-3.24-7.23-7.23V0h0Z"/><path class="c" d="M826.02,0h26.36V22.54c0,3.99-3.24,7.23-7.23,7.23h-11.91c-3.99,0-7.23-3.24-7.23-7.23V0h0Z"/><path class="b" d="M865.42,0h26.36V22.54c0,3.99-3.24,7.23-7.23,7.23h-11.91c-3.99,0-7.23-3.24-7.23-7.23V0h0Z"/><path class="c" d="M904.82,0h26.36V22.54c0,3.99-3.24,7.23-7.23,7.23h-11.91c-3.99,0-7.23-3.24-7.23-7.23V0h0Z"/><path class="b" d="M943.94,0h26.36V22.54c0,3.99-3.24,7.23-7.23,7.23h-11.91c-3.99,0-7.23-3.24-7.23-7.23V0h0Z"/><path class="c" d="M983.34,0h26.36V22.54c0,3.99-3.24,7.23-7.23,7.23h-11.91c-3.99,0-7.23-3.24-7.23-7.23V0h0Z"/><path class="b" d="M1022.74,0h26.36V22.54c0,3.99-3.24,7.23-7.23,7.23h-11.91c-3.99,0-7.23-3.24-7.23-7.23V0h0Z"/><path class="c" d="M1062.14,0h26.36V22.54c0,3.99-3.24,7.23-7.23,7.23h-11.91c-3.99,0-7.23-3.24-7.23-7.23V0h0Z"/><path class="b" d="M1101.26,0h26.36V22.54c0,3.99-3.24,7.23-7.23,7.23h-11.91c-3.99,0-7.23-3.24-7.23-7.23V0h0Z"/><path class="c" d="M1140.66,0h26.36V22.54c0,3.99-3.24,7.23-7.23,7.23h-11.91c-3.99,0-7.23-3.24-7.23-7.23V0h0Z"/><path class="b" d="M1180.06,0h26.36V22.54c0,3.99-3.24,7.23-7.23,7.23h-11.91c-3.99,0-7.23-3.24-7.23-7.23V0h0Z"/><path class="c" d="M1219.46,0h26.36V22.54c0,3.99-3.24,7.23-7.23,7.23h-11.91c-3.99,0-7.23-3.24-7.23-7.23V0h0Z"/><path class="b" d="M1258.58,0h26.36V22.54c0,3.99-3.24,7.23-7.23,7.23h-11.91c-3.99,0-7.23-3.24-7.23-7.23V0h0Z"/><path class="b" d="M0,0H26.36V22.54c0,3.99-3.24,7.23-7.23,7.23H7.23c-3.99,0-7.23-3.24-7.23-7.23V0H0Z"/><path class="c" d="M39.4,0h26.36V22.54c0,3.99-3.24,7.23-7.23,7.23h-11.91c-3.99,0-7.23-3.24-7.23-7.23V0h0Z"/><path class="b" d="M78.8,0h26.36V22.54c0,3.99-3.24,7.23-7.23,7.23h-11.91c-3.99,0-7.23-3.24-7.23-7.23V0h0Z"/><path class="c" d="M118.2,0h26.36V22.54c0,3.99-3.24,7.23-7.23,7.23h-11.91c-3.99,0-7.23-3.24-7.23-7.23V0h0Z"/><path class="b" d="M157.32,0h26.36V22.54c0,3.99-3.24,7.23-7.23,7.23h-11.91c-3.99,0-7.23-3.24-7.23-7.23V0h0Z"/><path class="c" d="M196.72,0h26.36V22.54c0,3.99-3.24,7.23-7.23,7.23h-11.91c-3.99,0-7.23-3.24-7.23-7.23V0h0Z"/><path class="b" d="M236.13,0h26.36V22.54c0,3.99-3.24,7.23-7.23,7.23h-11.91c-3.99,0-7.23-3.24-7.23-7.23V0h0Z"/><path class="c" d="M275.53,0h26.36V22.54c0,3.99-3.24,7.23-7.23,7.23h-11.91c-3.99,0-7.23-3.24-7.23-7.23V0h0Z"/><path class="b" d="M314.65,0h26.36V22.54c0,3.99-3.24,7.23-7.23,7.23h-11.91c-3.99,0-7.23-3.24-7.23-7.23V0h0Z"/><path class="c" d="M354.05,0h26.36V22.54c0,3.99-3.24,7.23-7.23,7.23h-11.91c-3.99,0-7.23-3.24-7.23-7.23V0h0Z"/><path class="b" d="M393.45,0h26.36V22.54c0,3.99-3.24,7.23-7.23,7.23h-11.91c-3.99,0-7.23-3.24-7.23-7.23V0h0Z"/><path class="c" d="M432.85,0h26.36V22.54c0,3.99-3.24,7.23-7.23,7.23h-11.91c-3.99,0-7.23-3.24-7.23-7.23V0h0Z"/><path class="b" d="M471.97,0h26.36V22.54c0,3.99-3.24,7.23-7.23,7.23h-11.91c-3.99,0-7.23-3.24-7.23-7.23V0h0Z"/><path class="c" d="M1297.98,0h26.36V22.54c0,3.99-3.24,7.23-7.23,7.23h-11.91c-3.99,0-7.23-3.24-7.23-7.23V0h0Z"/><path class="b" d="M1337.39,0h26.36V22.54c0,3.99-3.24,7.23-7.23,7.23h-11.91c-3.99,0-7.23-3.24-7.23-7.23V0h0Z"/><path class="c" d="M1376.79,0h26.36V22.54c0,3.99-3.24,7.23-7.23,7.23h-11.91c-3.99,0-7.23-3.24-7.23-7.23V0h0Z"/><path class="b" d="M1415.91,0h26.36V22.54c0,3.99-3.24,7.23-7.23,7.23h-11.91c-3.99,0-7.23-3.24-7.23-7.23V0h0Z"/><path class="c" d="M1455.59,0h26.36V22.54c0,3.99-3.24,7.23-7.23,7.23h-11.91c-3.99,0-7.23-3.24-7.23-7.23V0h0Z"/><path class="b" d="M1494.99,0h26.36V22.54c0,3.99-3.24,7.23-7.23,7.23h-11.91c-3.99,0-7.23-3.24-7.23-7.23V0h0Z"/><path class="c" d="M1534.39,0h26.36V22.54c0,3.99-3.24,7.23-7.23,7.23h-11.91c-3.99,0-7.23-3.24-7.23-7.23V0h0Z"/><path class="b" d="M1573.51,0h26.36V22.54c0,3.99-3.24,7.23-7.23,7.23h-11.91c-3.99,0-7.23-3.24-7.23-7.23V0h0Z"/><path class="c" d="M1612.91,0h26.36V22.54c0,3.99-3.24,7.23-7.23,7.23h-11.91c-3.99,0-7.23-3.24-7.23-7.23V0h0Z"/><path class="b" d="M1652.31,0h26.36V22.54c0,3.99-3.24,7.23-7.23,7.23h-11.91c-3.99,0-7.23-3.24-7.23-7.23V0h0Z"/><path class="c" d="M1691.72,0h26.36V22.54c0,3.99-3.24,7.23-7.23,7.23h-11.91c-3.99,0-7.23-3.24-7.23-7.23V0h0Z"/><path class="b" d="M1730.83,0h26.36V22.54c0,3.99-3.24,7.23-7.23,7.23h-11.91c-3.99,0-7.23-3.24-7.23-7.23V0h0Z"/><path class="c" d="M1770.52,0h26.36V22.54c0,3.99-3.24,7.23-7.23,7.23h-11.91c-3.99,0-7.23-3.24-7.23-7.23V0h0Z"/><path class="c" d="M4130.65,0h26.36V22.54c0,3.99-3.24,7.23-7.23,7.23h-11.91c-3.99,0-7.23-3.24-7.23-7.23V0h0Z"/><path class="b" d="M4170.05,0h26.36V22.54c0,3.99-3.24,7.23-7.23,7.23h-11.91c-3.99,0-7.23-3.24-7.23-7.23V0h0Z"/><path class="c" d="M4209.45,0h26.36V22.54c0,3.99-3.24,7.23-7.23,7.23h-11.91c-3.99,0-7.23-3.24-7.23-7.23V0h0Z"/><path class="b" d="M4248.57,0h26.36V22.54c0,3.99-3.24,7.23-7.23,7.23h-11.91c-3.99,0-7.23-3.24-7.23-7.23V0h0Z"/><path class="c" d="M4287.97,0h26.36V22.54c0,3.99-3.24,7.23-7.23,7.23h-11.91c-3.99,0-7.23-3.24-7.23-7.23V0h0Z"/><path class="b" d="M4327.37,0h26.36V22.54c0,3.99-3.24,7.23-7.23,7.23h-11.91c-3.99,0-7.23-3.24-7.23-7.23V0h0Z"/><path class="c" d="M4366.77,0h26.36V22.54c0,3.99-3.24,7.23-7.23,7.23h-11.91c-3.99,0-7.23-3.24-7.23-7.23V0h0Z"/><path class="b" d="M4405.89,0h26.36V22.54c0,3.99-3.24,7.23-7.23,7.23h-11.91c-3.99,0-7.23-3.24-7.23-7.23V0h0Z"/><path class="c" d="M4445.29,0h26.36V22.54c0,3.99-3.24,7.23-7.23,7.23h-11.91c-3.99,0-7.23-3.24-7.23-7.23V0h0Z"/><path class="b" d="M4484.69,0h26.36V22.54c0,3.99-3.24,7.23-7.23,7.23h-11.91c-3.99,0-7.23-3.24-7.23-7.23V0h0Z"/><path class="c" d="M4524.09,0h26.36V22.54c0,3.99-3.24,7.23-7.23,7.23h-11.91c-3.99,0-7.23-3.24-7.23-7.23V0h0Z"/><path class="b" d="M4563.21,0h26.36V22.54c0,3.99-3.24,7.23-7.23,7.23h-11.91c-3.99,0-7.23-3.24-7.23-7.23V0h0Z"/><path class="c" d="M4602.61,0h26.36V22.54c0,3.99-3.24,7.23-7.23,7.23h-11.91c-3.99,0-7.23-3.24-7.23-7.23V0h0Z"/><path class="b" d="M4642.02,0h26.36V22.54c0,3.99-3.24,7.23-7.23,7.23h-11.91c-3.99,0-7.23-3.24-7.23-7.23V0h0Z"/><path class="c" d="M4681.42,0h26.36V22.54c0,3.99-3.24,7.23-7.23,7.23h-11.91c-3.99,0-7.23-3.24-7.23-7.23V0h0Z"/><path class="b" d="M4720.54,0h26.36V22.54c0,3.99-3.24,7.23-7.23,7.23h-11.91c-3.99,0-7.23-3.24-7.23-7.23V0h0Z"/><path class="c" d="M4759.94,0h26.36V22.54c0,3.99-3.24,7.23-7.23,7.23h-11.91c-3.99,0-7.23-3.24-7.23-7.23V0h0Z"/><path class="b" d="M4799.34,0h26.36V22.54c0,3.99-3.24,7.23-7.23,7.23h-11.91c-3.99,0-7.23-3.24-7.23-7.23V0h0Z"/><path class="c" d="M4838.74,0h26.36V22.54c0,3.99-3.24,7.23-7.23,7.23h-11.91c-3.99,0-7.23-3.24-7.23-7.23V0h0Z"/><path class="b" d="M4877.86,0h26.36V22.54c0,3.99-3.24,7.23-7.23,7.23h-11.91c-3.99,0-7.23-3.24-7.23-7.23V0h0Z"/><path class="c" d="M3658.68,0h26.36V22.54c0,3.99-3.24,7.23-7.23,7.23h-11.91c-3.99,0-7.23-3.24-7.23-7.23V0h0Z"/><path class="b" d="M3698.08,0h26.36V22.54c0,3.99-3.24,7.23-7.23,7.23h-11.91c-3.99,0-7.23-3.24-7.23-7.23V0h0Z"/><path class="c" d="M3737.48,0h26.36V22.54c0,3.99-3.24,7.23-7.23,7.23h-11.91c-3.99,0-7.23-3.24-7.23-7.23V0h0Z"/><path class="b" d="M3776.6,0h26.36V22.54c0,3.99-3.24,7.23-7.23,7.23h-11.91c-3.99,0-7.23-3.24-7.23-7.23V0h0Z"/><path class="c" d="M3816,0h26.36V22.54c0,3.99-3.24,7.23-7.23,7.23h-11.91c-3.99,0-7.23-3.24-7.23-7.23V0h0Z"/><path class="b" d="M3855.4,0h26.36V22.54c0,3.99-3.24,7.23-7.23,7.23h-11.91c-3.99,0-7.23-3.24-7.23-7.23V0h0Z"/><path class="c" d="M3894.8,0h26.36V22.54c0,3.99-3.24,7.23-7.23,7.23h-11.91c-3.99,0-7.23-3.24-7.23-7.23V0h0Z"/><path class="b" d="M3933.92,0h26.36V22.54c0,3.99-3.24,7.23-7.23,7.23h-11.91c-3.99,0-7.23-3.24-7.23-7.23V0h0Z"/><path class="c" d="M3973.32,0h26.36V22.54c0,3.99-3.24,7.23-7.23,7.23h-11.91c-3.99,0-7.23-3.24-7.23-7.23V0h0Z"/><path class="b" d="M4012.72,0h26.36V22.54c0,3.99-3.24,7.23-7.23,7.23h-11.91c-3.99,0-7.23-3.24-7.23-7.23V0h0Z"/><path class="c" d="M4052.13,0h26.36V22.54c0,3.99-3.24,7.23-7.23,7.23h-11.91c-3.99,0-7.23-3.24-7.23-7.23V0h0Z"/><path class="b" d="M4091.24,0h26.36V22.54c0,3.99-3.24,7.23-7.23,7.23h-11.91c-3.99,0-7.23-3.24-7.23-7.23V0h0Z"/><path class="c" d="M4917.26,0h26.36V22.54c0,3.99-3.24,7.23-7.23,7.23h-11.91c-3.99,0-7.23-3.24-7.23-7.23V0h0Z"/><path class="b" d="M4956.66,0h26.36V22.54c0,3.99-3.24,7.23-7.23,7.23h-11.91c-3.99,0-7.23-3.24-7.23-7.23V0h0Z"/><path class="c" d="M4996.06,0h26.36V22.54c0,3.99-3.24,7.23-7.23,7.23h-11.91c-3.99,0-7.23-3.24-7.23-7.23V0h0Z"/><path class="b" d="M5035.18,0h26.36V22.54c0,3.99-3.24,7.23-7.23,7.23h-11.91c-3.99,0-7.23-3.24-7.23-7.23V0h0Z"/><path class="c" d="M5074.87,0h26.36V22.54c0,3.99-3.24,7.23-7.23,7.23h-11.91c-3.99,0-7.23-3.24-7.23-7.23V0h0Z"/><path class="b" d="M5114.27,0h26.36V22.54c0,3.99-3.24,7.23-7.23,7.23h-11.91c-3.99,0-7.23-3.24-7.23-7.23V0h0Z"/><path class="c" d="M5153.67,0h26.36V22.54c0,3.99-3.24,7.23-7.23,7.23h-11.91c-3.99,0-7.23-3.24-7.23-7.23V0h0Z"/><path class="b" d="M5192.79,0h26.36V22.54c0,3.99-3.24,7.23-7.23,7.23h-11.91c-3.99,0-7.23-3.24-7.23-7.23V0h0Z"/><path class="c" d="M5232.19,0h26.36V22.54c0,3.99-3.24,7.23-7.23,7.23h-11.91c-3.99,0-7.23-3.24-7.23-7.23V0h0Z"/><path class="b" d="M5271.59,0h26.36V22.54c0,3.99-3.24,7.23-7.23,7.23h-11.91c-3.99,0-7.23-3.24-7.23-7.23V0h0Z"/><path class="c" d="M5310.99,0h26.36V22.54c0,3.99-3.24,7.23-7.23,7.23h-11.91c-3.99,0-7.23-3.24-7.23-7.23V0h0Z"/><path class="b" d="M5350.11,0h26.36V22.54c0,3.99-3.24,7.23-7.23,7.23h-11.91c-3.99,0-7.23-3.24-7.23-7.23V0h0Z"/><path class="c" d="M5389.8,0h26.36V22.54c0,3.99-3.24,7.23-7.23,7.23h-11.91c-3.99,0-7.23-3.24-7.23-7.23V0h0Z"/><path class="b" d="M5428.91,0h26.36V22.54c0,3.99-3.24,7.23-7.23,7.23h-11.91c-3.99,0-7.23-3.24-7.23-7.23V0h0Z"/></svg>