<?xml version="1.0" encoding="UTF-8"?><svg id="a" xmlns="http://www.w3.org/2000/svg" viewBox="0 0 1442.27 29.76"><defs><style>.b{fill:#ffba5a;}.c{fill:#ffd192;}</style></defs><path class="c" d="M511.37,0h26.36V22.54c0,3.99-3.24,7.23-7.23,7.23h-11.91c-3.99,0-7.23-3.24-7.23-7.23V0h0Z"/><path class="b" d="M550.77,0h26.36V22.54c0,3.99-3.24,7.23-7.23,7.23h-11.91c-3.99,0-7.23-3.24-7.23-7.23V0h0Z"/><path class="c" d="M590.17,0h26.36V22.54c0,3.99-3.24,7.23-7.23,7.23h-11.91c-3.99,0-7.23-3.24-7.23-7.23V0h0Z"/><path class="b" d="M629.29,0h26.36V22.54c0,3.99-3.24,7.23-7.23,7.23h-11.91c-3.99,0-7.23-3.24-7.23-7.23V0h0Z"/><path class="c" d="M668.69,0h26.36V22.54c0,3.99-3.24,7.23-7.23,7.23h-11.91c-3.99,0-7.23-3.24-7.23-7.23V0h0Z"/><path class="b" d="M708.09,0h26.36V22.54c0,3.99-3.24,7.23-7.23,7.23h-11.91c-3.99,0-7.23-3.24-7.23-7.23V0h0Z"/><path class="c" d="M747.5,0h26.36V22.54c0,3.99-3.24,7.23-7.23,7.23h-11.91c-3.99,0-7.23-3.24-7.23-7.23V0h0Z"/><path class="b" d="M786.61,0h26.36V22.54c0,3.99-3.24,7.23-7.23,7.23h-11.91c-3.99,0-7.23-3.24-7.23-7.23V0h0Z"/><path class="c" d="M826.02,0h26.36V22.54c0,3.99-3.24,7.23-7.23,7.23h-11.91c-3.99,0-7.23-3.24-7.23-7.23V0h0Z"/><path class="b" d="M865.42,0h26.36V22.54c0,3.99-3.24,7.23-7.23,7.23h-11.91c-3.99,0-7.23-3.24-7.23-7.23V0h0Z"/><path class="c" d="M904.82,0h26.36V22.54c0,3.99-3.24,7.23-7.23,7.23h-11.91c-3.99,0-7.23-3.24-7.23-7.23V0h0Z"/><path class="b" d="M943.94,0h26.36V22.54c0,3.99-3.24,7.23-7.23,7.23h-11.91c-3.99,0-7.23-3.24-7.23-7.23V0h0Z"/><path class="c" d="M983.34,0h26.36V22.54c0,3.99-3.24,7.23-7.23,7.23h-11.91c-3.99,0-7.23-3.24-7.23-7.23V0h0Z"/><path class="b" d="M1022.74,0h26.36V22.54c0,3.99-3.24,7.23-7.23,7.23h-11.91c-3.99,0-7.23-3.24-7.23-7.23V0h0Z"/><path class="c" d="M1062.14,0h26.36V22.54c0,3.99-3.24,7.23-7.23,7.23h-11.91c-3.99,0-7.23-3.24-7.23-7.23V0h0Z"/><path class="b" d="M1101.26,0h26.36V22.54c0,3.99-3.24,7.23-7.23,7.23h-11.91c-3.99,0-7.23-3.24-7.23-7.23V0h0Z"/><path class="c" d="M1140.66,0h26.36V22.54c0,3.99-3.24,7.23-7.23,7.23h-11.91c-3.99,0-7.23-3.24-7.23-7.23V0h0Z"/><path class="b" d="M1180.06,0h26.36V22.54c0,3.99-3.24,7.23-7.23,7.23h-11.91c-3.99,0-7.23-3.24-7.23-7.23V0h0Z"/><path class="c" d="M1219.46,0h26.36V22.54c0,3.99-3.24,7.23-7.23,7.23h-11.91c-3.99,0-7.23-3.24-7.23-7.23V0h0Z"/><path class="b" d="M1258.58,0h26.36V22.54c0,3.99-3.24,7.23-7.23,7.23h-11.91c-3.99,0-7.23-3.24-7.23-7.23V0h0Z"/><path class="b" d="M0,0H26.36V22.54c0,3.99-3.24,7.23-7.23,7.23H7.23c-3.99,0-7.23-3.24-7.23-7.23V0H0Z"/><path class="c" d="M39.4,0h26.36V22.54c0,3.99-3.24,7.23-7.23,7.23h-11.91c-3.99,0-7.23-3.24-7.23-7.23V0h0Z"/><path class="b" d="M78.8,0h26.36V22.54c0,3.99-3.24,7.23-7.23,7.23h-11.91c-3.99,0-7.23-3.24-7.23-7.23V0h0Z"/><path class="c" d="M118.2,0h26.36V22.54c0,3.99-3.24,7.23-7.23,7.23h-11.91c-3.99,0-7.23-3.24-7.23-7.23V0h0Z"/><path class="b" d="M157.32,0h26.36V22.54c0,3.99-3.24,7.23-7.23,7.23h-11.91c-3.99,0-7.23-3.24-7.23-7.23V0h0Z"/><path class="c" d="M196.72,0h26.36V22.54c0,3.99-3.24,7.23-7.23,7.23h-11.91c-3.99,0-7.23-3.24-7.23-7.23V0h0Z"/><path class="b" d="M236.13,0h26.36V22.54c0,3.99-3.24,7.23-7.23,7.23h-11.91c-3.99,0-7.23-3.24-7.23-7.23V0h0Z"/><path class="c" d="M275.53,0h26.36V22.54c0,3.99-3.24,7.23-7.23,7.23h-11.91c-3.99,0-7.23-3.24-7.23-7.23V0h0Z"/><path class="b" d="M314.65,0h26.36V22.54c0,3.99-3.24,7.23-7.23,7.23h-11.91c-3.99,0-7.23-3.24-7.23-7.23V0h0Z"/><path class="c" d="M354.05,0h26.36V22.54c0,3.99-3.24,7.23-7.23,7.23h-11.91c-3.99,0-7.23-3.24-7.23-7.23V0h0Z"/><path class="b" d="M393.45,0h26.36V22.54c0,3.99-3.24,7.23-7.23,7.23h-11.91c-3.99,0-7.23-3.24-7.23-7.23V0h0Z"/><path class="c" d="M432.85,0h26.36V22.54c0,3.99-3.24,7.23-7.23,7.23h-11.91c-3.99,0-7.23-3.24-7.23-7.23V0h0Z"/><path class="b" d="M471.97,0h26.36V22.54c0,3.99-3.24,7.23-7.23,7.23h-11.91c-3.99,0-7.23-3.24-7.23-7.23V0h0Z"/><path class="c" d="M1297.98,0h26.36V22.54c0,3.99-3.24,7.23-7.23,7.23h-11.91c-3.99,0-7.23-3.24-7.23-7.23V0h0Z"/><path class="b" d="M1337.39,0h26.36V22.54c0,3.99-3.24,7.23-7.23,7.23h-11.91c-3.99,0-7.23-3.24-7.23-7.23V0h0Z"/><path class="c" d="M1376.79,0h26.36V22.54c0,3.99-3.24,7.23-7.23,7.23h-11.91c-3.99,0-7.23-3.24-7.23-7.23V0h0Z"/><path class="b" d="M1415.91,0h26.36V22.54c0,3.99-3.24,7.23-7.23,7.23h-11.91c-3.99,0-7.23-3.24-7.23-7.23V0h0Z"/></svg>